<svg xmlns="http://www.w3.org/2000/svg" data-name="Layer 1" viewBox="0 0 512 512" id="celebration"><path d="M289.849 58.24a7.497 7.497 0 0 0 10.481-1.624l21.723-29.687a7.5 7.5 0 1 0-12.106-8.857l-21.722 29.687a7.5 7.5 0 0 0 1.624 10.481Zm-79.256-3.095a7.5 7.5 0 1 0 12.105-8.858l-20.645-28.216a7.5 7.5 0 1 0-12.106 8.858Zm25.25 46.125-90.296-25.313a17.308 17.308 0 0 0-19.69 8.085c-13.92 24.284-25.902 53.44-34.652 84.313-19.317 68.159-19.838 133.551-1.326 166.594a55.15 55.15 0 0 0 7.738 10.757L68.778 446.133 8.47 455.768a9.84 9.84 0 0 0-8.46 9.241 10.18 10.18 0 0 0 7.884 10.288l54.929 13.99a7.555 7.555 0 0 0 1.07.435 7.478 7.478 0 0 0 1.863.312l84.886 21.62a11.062 11.062 0 0 0 2.732.347 10.042 10.042 0 0 0 9.128-5.614 9.827 9.827 0 0 0-2.994-12.147l-47.185-36.48 29.884-104.09c12.852-5.7 26.215-17.274 39.262-34.282 21.274-27.734 39.838-67.165 52.27-111.033l.057-.206.003-.01c8.707-30.784 13.777-61.774 14.66-89.633a17.28 17.28 0 0 0-12.616-17.236ZM131.025 491.18l-96.03-24.46 40.818-6.52.127-.021 10.489-1.676a4.66 4.66 0 0 1 3.47.881Zm-31.474-43.294-.478-.37a19.568 19.568 0 0 0-13.954-3.938l25.448-88.62a34.501 34.501 0 0 0 13.747 2.808c.372 0 .745-.015 1.118-.026Zm121.07-248.38c-14.155 1.49-26.638-.388-37.144-5.624a53.782 53.782 0 0 1-11.809-8.08 7.5 7.5 0 1 0-9.875 11.291 67.885 67.885 0 0 0 14.991 10.213 76.815 76.815 0 0 0 34.672 7.708c1.544 0 3.109-.05 4.686-.125-11.785 37.774-28.14 71.337-46.575 95.369-18.447 24.047-36.919 35.624-50.672 31.772-6.184-1.733-11.543-6.582-15.93-14.412-16-28.561-15.367-88.58 1.374-150.461 14.862-1.728 27.798.07 38.493 5.39a7.5 7.5 0 1 0 6.682-13.43c-11.767-5.855-25.411-8.33-40.674-7.416 8.038-25.698 18.327-49.783 30.03-70.199a2.334 2.334 0 0 1 2.018-1.185 2.26 2.26 0 0 1 .61.084l90.297 25.312a2.312 2.312 0 0 1 1.672 2.318c-.802 25.293-5.237 53.363-12.846 81.475ZM256 0a7.5 7.5 0 0 0-7.5 7.5v41a7.5 7.5 0 0 0 15 0v-41A7.5 7.5 0 0 0 256 0ZM511.99 465.01a9.84 9.84 0 0 0-8.462-9.241l-60.306-9.635-28.838-100.423c7.295-7.799 12.885-19.24 16.507-33.974a7.5 7.5 0 1 0-14.567-3.58c-2.698 10.976-9.302 29.973-23.22 33.874-13.754 3.854-32.224-7.723-50.671-31.772-18.436-24.032-34.79-57.595-46.575-95.37 1.577.076 3.142.126 4.686.126a76.815 76.815 0 0 0 34.672-7.708c8.565-4.27 13.972-9.225 18.743-13.596 4.418-4.048 8.59-7.87 15.209-11.164 10.692-5.319 23.623-7.12 38.485-5.39 9.856 36.403 14.35 72.679 12.654 102.64a7.5 7.5 0 0 0 14.976.847c1.862-32.873-3.283-72.752-14.488-112.288-8.75-30.873-20.733-60.029-34.651-84.314a17.3 17.3 0 0 0-19.69-8.084l-90.297 25.313a17.279 17.279 0 0 0-12.616 17.235c.883 27.86 5.953 58.85 14.66 89.633l.003.011.057.206c12.432 43.868 30.996 83.3 52.27 111.033 13.048 17.01 26.41 28.585 39.262 34.283l29.884 104.089-47.187 36.481a9.827 9.827 0 0 0-2.992 12.146 10.042 10.042 0 0 0 9.128 5.614 11.076 11.076 0 0 0 2.733-.346l84.885-21.62a6.945 6.945 0 0 0 2.933-.748l54.928-13.99a10.18 10.18 0 0 0 7.885-10.288Zm-233.457-346.98a2.311 2.311 0 0 1 1.672-2.316l90.297-25.312a2.315 2.315 0 0 1 2.628 1.1c11.703 20.417 21.992 44.503 30.03 70.2-15.262-.913-28.908 1.563-40.674 7.415-8.512 4.236-13.904 9.176-18.66 13.535-4.435 4.063-8.624 7.902-15.302 11.231-10.505 5.237-22.987 7.116-37.145 5.624-7.609-28.112-12.044-56.182-12.846-81.477ZM386.568 357.74c.373.012.746.026 1.118.026a34.781 34.781 0 0 0 13.749-2.8l25.446 88.612a19.56 19.56 0 0 0-13.954 3.939l-.478.37Zm-5.593 133.44 41.126-31.796a4.667 4.667 0 0 1 3.47-.88l10.49 1.675.124.02 40.82 6.522Z"></path></svg>