<svg xmlns="http://www.w3.org/2000/svg" viewBox="0 0 65 65" id="celebration"><path d="M10.2 44.5h1.5V46h-1.5z" transform="scale(-1) rotate(59.994 78.483 -19.049)"></path><path d="M7.4 46.2h1.5v1.5H7.4z" transform="rotate(-120 8.138 46.961)"></path><path d="M13.1 42.9h1.5v1.5h-1.5z" transform="scale(-1) rotate(59.994 75.62 -24.001)"></path><path d="M4.5 47.9H6v1.5H4.5z" transform="scale(-1) rotate(59.994 84.183 -9.185)"></path><path d="M15.5 48.4H17v1.5h-1.5z" transform="rotate(44.976 16.214 49.18)"></path><path d="M12.6 51.3h1.5v1.5h-1.5z" transform="rotate(-135.081 13.338 52.055)"></path><path d="M18.3 45.5h1.5V47h-1.5z" transform="rotate(134.991 19.087 46.302)"></path><path d="M9.7 54.2h1.5v1.5H9.7z" transform="rotate(-134.999 10.467 54.93)"></path><path d="M19.7 53h1.5v1.5h-1.5z" transform="scale(-1) rotate(30.006 200.607 -76.306)"></path><path d="M18 55.9h1.5v1.5H18z" transform="rotate(-150 18.774 56.67)"></path><path d="M21.4 50.1h1.5v1.5h-1.5z" transform="scale(-1) rotate(30.006 189.769 -82.557)"></path><path d="M16.3 58.8h1.5v1.5h-1.5z" transform="scale(-1) rotate(29.972 222.545 -63.875)"></path><path d="M23 47.2h1.5v1.5H23z" transform="scale(-1) rotate(29.972 179.135 -88.912)"></path><path d="M26.5 51.7H28v1.5h-1.5z" transform="scale(-1) rotate(14.976 398.91 -207.44)"></path><path d="M25.6 55.2h1.5v1.5h-1.5z" transform="scale(-1) rotate(14.976 425.802 -200.25)"></path><path d="M27.4 48.1h1.5v1.5h-1.5z" transform="scale(-1) rotate(14.976 372.021 -214.627)"></path><path d="M23.7 62.3h1.5v1.5h-1.5z" transform="scale(-1) rotate(14.976 479.584 -185.864)"></path><path d="M24.6 58.7h1.5v1.5h-1.5z" transform="rotate(-165.061 25.374 59.498)"></path><path d="M31.7 48.4h1.5v1.5h-1.5zM31.7 56h1.5v1.5h-1.5zM31.7 52.2h1.5v1.5h-1.5zM31.7 59.7h1.5v1.5h-1.5zM31.7 63.5h1.5V65h-1.5z"></path><path d="M39.8 62.3h1.5v1.5h-1.5z" transform="rotate(-105.052 40.585 63.024)"></path><path d="M38.9 58.7h1.5v1.5h-1.5z" transform="rotate(-15.05 39.64 59.503)"></path><path d="M37.9 55.2h1.5v1.5h-1.5z" transform="rotate(-15.006 38.7 55.963)"></path><path d="M36 48.1h1.5v1.5H36z" transform="rotate(-15.016 36.784 48.884)"></path><path d="M37 51.7h1.5v1.5H37z" transform="rotate(-15.016 37.732 52.417)"></path><path d="M45.5 55.9H47v1.5h-1.5z" transform="rotate(-30.037 46.23 56.65)"></path><path d="M47.1 58.8h1.5v1.5h-1.5z" transform="scale(-1) rotate(59.966 103.235 -83.044)"></path><path d="M40.4 47.2h1.5v1.5h-1.5z" transform="rotate(149.963 41.198 47.946)"></path><path d="M42.1 50.1h1.5v1.5h-1.5z" transform="rotate(-30.037 42.876 50.845)"></path><path d="M43.8 53h1.5v1.5h-1.5z" transform="rotate(-30.034 44.558 53.756)"></path><path d="M50.9 51.3h1.5v1.5h-1.5z" transform="rotate(-134.999 51.663 52.035)"></path><path d="M45.1 45.5h1.5V47h-1.5z" transform="rotate(134.975 45.912 46.287)"></path><path d="M48 48.4h1.5v1.5H48z" transform="rotate(-135.016 48.787 49.162)"></path><path d="M53.8 54.1h1.5v1.5h-1.5z" transform="rotate(-135.04 54.539 54.908)"></path><path d="M59 47.8h1.5v1.5H59z" transform="rotate(-150.031 59.696 48.573)"></path><path d="M53.2 44.5h1.5V46h-1.5z" transform="rotate(29.969 54.003 45.288)"></path><path d="M50.4 42.9h1.5v1.5h-1.5z" transform="rotate(29.969 51.142 43.639)"></path><path d="M56.1 46.2h1.5v1.5h-1.5z" transform="rotate(-150.009 56.862 46.935)"></path><path d="M13.1 20.6h1.5v1.5h-1.5z" transform="scale(-1) rotate(30.021 79.603 -51.677)"></path><path d="M7.4 17.3h1.5v1.5H7.4z" transform="rotate(-149.963 8.138 18.039)"></path><path d="M10.2 18.9h1.5v1.5h-1.5z" transform="scale(-1) rotate(30.021 73.44 -41.014)"></path><path d="M4.6 15.6h1.5v1.5H4.6z" transform="rotate(-149.963 5.303 16.4)"></path><path d="M9.7 9.3h1.5v1.5H9.7z" transform="rotate(45.017 10.467 10.069)"></path><path d="M12.6 12.2h1.5v1.5h-1.5z" transform="rotate(45.057 13.34 12.944)"></path><path d="M18.3 17.9h1.5v1.5h-1.5z" transform="rotate(45.009 19.087 18.699)"></path><path d="M15.5 15.1H17v1.5h-1.5z" transform="rotate(45.041 16.213 15.82)"></path><path d="M23 16.3h1.5v1.5H23z" transform="rotate(-29.972 23.8 17.044)"></path><path d="M19.7 10.5h1.5V12h-1.5z" transform="scale(-1) rotate(-30.006 -41.921 76.304)"></path><path d="M21.4 13.4h1.5v1.5h-1.5z" transform="scale(-1) rotate(-29.972 -52.821 82.652)"></path><path d="M16.3 4.7h1.5v1.5h-1.5z" transform="rotate(60.007 17.1 5.424)"></path><path d="M18 7.6h1.5v1.5H18z" transform="rotate(150 18.775 8.33)"></path><path d="M27.4 15.3h1.5v1.5h-1.5z" transform="scale(-1) rotate(-14.976 -122.53 214.635)"></path><path d="M25.6 8.3h1.5v1.5h-1.5z" transform="scale(-1) rotate(-14.976 -68.755 200.256)"></path><path d="M23.7 1.2h1.5v1.5h-1.5z" transform="rotate(75.024 24.43 1.967)"></path><path d="M26.5 11.8H28v1.5h-1.5z" transform="scale(-1) rotate(-14.976 -95.64 207.446)"></path><path d="M24.6 4.7h1.5v1.5h-1.5z" transform="rotate(165.061 25.375 5.502)"></path><path d="M31.7 15h1.5v1.5h-1.5zM31.7 11.3h1.5v1.5h-1.5zM31.7 0h1.5v1.5h-1.5zM31.7 7.5h1.5V9h-1.5zM31.7 3.8h1.5v1.5h-1.5z"></path><path d="M39.8 1.2h1.5v1.5h-1.5z" transform="rotate(15.05 40.582 1.976)"></path><path d="M38.9 4.7h1.5v1.5h-1.5z" transform="rotate(15.05 39.639 5.507)"></path><path d="M37.9 8.3h1.5v1.5h-1.5z" transform="rotate(15.016 38.682 9.04)"></path><path d="M37 11.8h1.5v1.5H37z" transform="rotate(15.006 37.738 12.579)"></path><path d="M36 15.3h1.5v1.5H36z" transform="rotate(15.006 36.794 16.116)"></path><path d="M40.4 16.3h1.5v1.5h-1.5z" transform="rotate(-59.966 41.199 17.055)"></path><path d="M45.5 7.6H47v1.5h-1.5z" transform="rotate(30.037 46.23 8.344)"></path><path d="M47.1 4.7h1.5v1.5h-1.5z" transform="rotate(30.034 47.916 5.441)"></path><path d="M43.8 10.5h1.5V12h-1.5z" transform="rotate(30.034 44.556 11.247)"></path><path d="M42.1 13.4h1.5v1.5h-1.5z" transform="rotate(30.034 42.88 14.152)"></path><path d="M50.9 12.2h1.5v1.5h-1.5z" transform="rotate(-134.999 51.663 12.965)"></path><path d="M53.8 9.3h1.5v1.5h-1.5z" transform="rotate(-134.999 54.54 10.09)"></path><path d="M48 15.1h1.5v1.5H48z" transform="rotate(-134.975 48.787 15.838)"></path><path d="M45.1 17.9h1.5v1.5h-1.5z" transform="rotate(-44.96 45.911 18.711)"></path><path d="M56.1 17.3h1.5v1.5h-1.5z" transform="scale(-1) rotate(60.015 31.275 -98.453)"></path><path d="M50.4 20.6h1.5v1.5h-1.5z" transform="rotate(-29.969 51.142 21.365)"></path><path d="M53.2 19h1.5v1.5h-1.5z" transform="rotate(60.015 53.997 19.712)"></path><path d="M58.9 15.7h1.5v1.5h-1.5z" transform="rotate(60.015 59.694 16.427)"></path><path d="M44.7 30.2c-.1-.3-.3-.5-.6-.5l-7.6-1-3.3-6.9c-.1-.3-.4-.4-.7-.4s-.6.2-.7.4l-3.3 6.9-7.6 1c-.3 0-.5.2-.6.5-.1.3 0 .6.2.8l5.5 5.3-1.3 7.5c-.1.3.1.6.3.8.1.1.3.1.4.1.1 0 .2 0 .4-.1l6.7-3.6 6.7 3.6c.3.1.6.1.8-.1.2-.2.4-.5.3-.8L39 36.3l5.5-5.3c.2-.2.3-.5.2-.8zm-7 5.3c-.2.2-.3.4-.2.7l1.1 6.4-5.7-3c-.1-.1-.2-.1-.4-.1s-.2 0-.4.1l-5.7 3 1.1-6.4c0-.3 0-.5-.2-.7L22.7 31l6.4-.9c.3 0 .5-.2.6-.4l2.8-5.8 2.8 5.8c.1.2.3.4.6.4l6.4.9-4.6 4.5z"></path><path d="M52.1 27.8c-.1-.3-.3-.5-.6-.5l-5.3-.7-2.3-4.8c-.3-.5-1.1-.5-1.4 0L40 26.9c-.2.4 0 .8.4 1 .4.2.8 0 1-.4l1.8-3.7 1.8 3.7c.1.2.3.4.6.4l4.1.6-3 2.9c-.2.2-.3.4-.2.7l.7 4.1-3.7-2c-.4-.2-.8-.1-1 .3-.2.4-.1.8.3 1l5 2.7c.1.1.2.1.4.1s.3 0 .4-.1c.2-.2.4-.5.3-.8l-.9-5.2 3.8-3.7c.3-.1.4-.4.3-.7zM22.4 34.6c-.2-.4-.7-.5-1-.3l-3.7 2 .7-4.1c0-.3 0-.5-.2-.7l-3-2.9 4.1-.6c.3 0 .5-.2.6-.4l1.8-3.7 1.8 3.7c.2.4.6.5 1 .4.4-.2.5-.6.4-1l-2.5-5.1c-.3-.5-1.1-.5-1.4 0l-2.3 4.8-5.3.7c-.3 0-.5.2-.6.5-.1.3 0 .6.2.8l3.8 3.7-.8 5.1c-.1.3.1.6.3.8.1.1.3.1.4.1.1 0 .2 0 .4-.1l5-2.7c.4-.2.5-.7.3-1z"></path></svg>