<svg xmlns="http://www.w3.org/2000/svg" enable-background="new 0 0 25 25" viewBox="0 0 25 25" id="celebration"><path fill="#494B4C" d="M15.77,13.69c1.8-0.31,3.77-0.33,5.38,0.41c0.25,0.12,0.55,0.01,0.66-0.25c0.12-0.25,0-0.55-0.25-0.66
			c-2.79-1.28-6.35-0.58-8.79,0.2c1.88-2.14,4.32-5.69,4.32-9.76c0-0.28-0.22-0.5-0.5-0.5s-0.5,0.22-0.5,0.5
			c0,4.2-2.95,7.93-4.74,9.81c0.31-0.89,0.6-2.05,0.67-3.32c0-0.02,0-0.04,0-0.06c0.07-1.32-0.11-2.75-0.8-4.11
			c-0.13-0.25-0.43-0.34-0.67-0.22c-0.25,0.13-0.34,0.43-0.22,0.67C10.8,7.29,11,8.23,11.04,9.15C9.75,8.25,8.01,7.29,6.86,7.65
			c-0.27,0.09-0.61,0.3-0.83,0.74c-1.38,2.24-7.32,14.62-5.69,16.25C0.58,24.88,0.96,25,1.53,25h0c3.34,0,13.9-4.29,15.47-5.5
			c0.31-0.16,0.54-0.41,0.68-0.76c0.39-0.97-0.16-2.11-0.45-2.72C16.86,15.25,16.37,14.47,15.77,13.69z M16.33,16.45
			c0.21,0.44,0.65,1.36,0.42,1.92c-0.04,0.1-0.1,0.16-0.16,0.21c-0.04,0.01-0.07,0.04-0.11,0.07c-0.22,0.07-0.88,0.14-2.5-0.79
			c-1.09-0.63-2.17-1.48-3.19-2.46c0.08-0.07,0.21-0.19,0.36-0.32c0.76-0.32,2.04-0.8,3.52-1.15
			C15.37,14.77,15.93,15.62,16.33,16.45z M11.01,10.36c-0.17,1.88-0.85,3.48-1.14,4.09c-0.3-0.32-0.59-0.65-0.87-1
			c-0.83-1.03-1.39-1.91-1.77-2.75c-0.18-0.39-0.54-1.19-0.37-1.73c0.02-0.05,0.04-0.1,0.06-0.14c0.02-0.02,0.03-0.04,0.05-0.06
			C6.99,8.75,7,8.72,7.02,8.69c0.05-0.04,0.1-0.07,0.15-0.08C7.9,8.37,9.58,9.29,11.01,10.36z M1.05,23.95
			C0.46,22.95,4.01,14.02,6,10.28c0.09,0.28,0.2,0.55,0.32,0.82c0.55,1.21,1.35,2.27,1.9,2.96c1.58,1.97,3.4,3.58,5.26,4.65
			c0.58,0.34,1.1,0.58,1.57,0.74c-1.36,0.66-3.61,1.63-6.25,2.59C3.36,24.04,1.34,24.15,1.05,23.95z M9.37,2.07
			c0-0.58,0.47-1.04,1.04-1.04c0.58,0,1.04,0.47,1.04,1.04c0,0.58-0.47,1.04-1.04,1.04C9.84,3.11,9.37,2.64,9.37,2.07z M12.5,5.2
			c0-0.58,0.47-1.04,1.04-1.04c0.58,0,1.04,0.47,1.04,1.04c0,0.58-0.47,1.04-1.04,1.04C12.97,6.24,12.5,5.77,12.5,5.2z M18.23,2.59
			c0-0.58,0.47-1.04,1.04-1.04c0.58,0,1.04,0.47,1.04,1.04s-0.47,1.04-1.04,1.04C18.7,3.63,18.23,3.16,18.23,2.59z M23.45,10.93
			c0.58,0,1.04,0.47,1.04,1.04s-0.47,1.04-1.04,1.04s-1.04-0.47-1.04-1.04S22.87,10.93,23.45,10.93z M21.36,17.2
			c0,0.58-0.47,1.04-1.04,1.04c-0.58,0-1.04-0.47-1.04-1.04c0-0.58,0.47-1.04,1.04-1.04C20.9,16.15,21.36,16.62,21.36,17.2z M4.08,2
			C3.9,1.55,4.02,1.19,4.15,0.98C4.6,0.22,5.9,0.03,6.15,0L6.27,1C5.83,1.05,5.15,1.25,5.01,1.49C4.99,1.51,4.98,1.54,5.01,1.63
			c0.07,0.19,0.23,0.23,0.75,0.28c0.53,0.05,1.34,0.12,1.64,1c0.29,0.85-0.32,1.35-0.68,1.65C6.32,4.88,6.25,4.99,6.3,5.19
			C6.31,5.25,6.34,5.3,6.41,5.34c0.22,0.13,0.78,0.14,1.52-0.1l0.31,0.95C7.76,6.35,7.3,6.43,6.9,6.43c-0.38,0-0.72-0.07-0.98-0.22
			c-0.31-0.18-0.52-0.45-0.6-0.8C5.12,4.57,5.7,4.1,6.08,3.79c0.4-0.33,0.43-0.39,0.37-0.56C6.38,3,6.21,2.95,5.67,2.9
			C5.16,2.85,4.4,2.78,4.08,2z M24.96,19.48l-0.91,0.41c-0.19-0.43-0.51-0.82-0.64-0.83c-0.11,0.09-0.12,0.17-0.04,0.59
			c0.09,0.43,0.24,1.14-0.42,1.63c-0.65,0.47-1.24,0.07-1.59-0.17c-0.11-0.07-0.3-0.19-0.38-0.21c-0.1,0.07-0.09,0.16,0.1,0.58
			c0.21,0.47,0.56,1.25-0.17,1.86c-0.2,0.16-0.42,0.25-0.67,0.25c-0.06,0-0.11,0-0.17-0.01c-0.79-0.12-1.46-1.11-1.59-1.31
			l0.84-0.54c0.24,0.38,0.67,0.83,0.9,0.86c0.15-0.1,0.17-0.18-0.06-0.7c-0.2-0.44-0.53-1.19,0.14-1.73
			c0.65-0.53,1.28-0.1,1.62,0.13c0.34,0.23,0.38,0.23,0.44,0.19c0.11-0.08,0.13-0.16,0.03-0.62c-0.09-0.43-0.23-1.08,0.36-1.56
			c0.27-0.21,0.58-0.29,0.9-0.21C24.39,18.27,24.88,19.28,24.96,19.48z M17.78,9.71l0.8-0.6c0.26,0.35,0.78,0.84,1.06,0.85
			c0.02,0,0.07,0,0.13-0.08c0.13-0.16,0.09-0.32-0.12-0.79c-0.22-0.49-0.56-1.23,0.07-1.93c0.6-0.68,1.37-0.38,1.82-0.2
			c0.54,0.21,0.59,0.18,0.69,0.06c0.09-0.12,0.09-0.21-0.31-0.75C21.57,5.79,20.98,5,21.64,4.15c0.22-0.28,0.52-0.44,0.87-0.46
			c0.93-0.06,1.95,0.89,2.15,1.09l-0.7,0.71c-0.34-0.34-1-0.82-1.38-0.8c-0.06,0-0.1,0.02-0.14,0.08c-0.15,0.19-0.13,0.33,0.3,0.91
			c0.36,0.48,0.89,1.2,0.29,1.96c-0.59,0.74-1.37,0.43-1.84,0.25c-0.51-0.2-0.6-0.19-0.71-0.07c-0.17,0.19-0.13,0.34,0.1,0.85
			c0.21,0.46,0.53,1.17-0.01,1.83c-0.24,0.3-0.55,0.45-0.91,0.45c-0.01,0-0.02,0-0.02,0C18.74,10.94,17.93,9.91,17.78,9.71z"></path></svg>